<?xml version="1.0" encoding="UTF-8"?>
<svg version="1.1" xmlns="http://www.w3.org/2000/svg" width="50" height="50">
<path d="M0 0 C3.19556529 1.26491126 4.53559295 2.48755084 6.8125 5 C8.62085653 9.56847965 8.40678241 14.14207935 8 19 C7.67 19.66 7.34 20.32 7 21 C6.84876169 22.5195764 6.75118307 24.04472502 6.68359375 25.5703125 C6.62075195 26.91416016 6.62075195 26.91416016 6.55664062 28.28515625 C6.51732422 29.22230469 6.47800781 30.15945312 6.4375 31.125 C6.37272461 32.54232422 6.37272461 32.54232422 6.30664062 33.98828125 C6.20040928 36.32537092 6.09836824 38.6625683 6 41 C6.66 41 7.32 41 8 41 C8 43.97 8 46.94 8 50 C-8.5 50 -25 50 -42 50 C-42 47.03 -42 44.06 -42 41 C-41.34 41 -40.68 41 -40 41 C-40.00523682 40.15703369 -40.01047363 39.31406738 -40.01586914 38.44555664 C-40.03287826 35.32772064 -40.04543406 32.20990823 -40.05493164 29.09204102 C-40.05997057 27.74079614 -40.06680177 26.38955674 -40.07543945 25.03833008 C-40.08752419 23.09979566 -40.09269828 21.161222 -40.09765625 19.22265625 C-40.10289307 18.05484619 -40.10812988 16.88703613 -40.11352539 15.68383789 C-40 13 -40 13 -39 12 C-37.5112814 11.91330568 -36.018555 11.89296506 -34.52734375 11.90234375 C-33.62822266 11.90556641 -32.72910156 11.90878906 -31.80273438 11.91210938 C-30.85720703 11.92048828 -29.91167969 11.92886719 -28.9375 11.9375 C-27.98810547 11.94201172 -27.03871094 11.94652344 -26.06054688 11.95117188 C-23.70696935 11.9629989 -21.35351523 11.97947975 -19 12 C-18.88527344 11.06800781 -18.77054688 10.13601563 -18.65234375 9.17578125 C-17.81723854 5.11026908 -16.10870355 3.65377132 -13 1 C-9.07466952 -0.96266524 -4.28932328 -0.34140779 0 0 Z " fill="#050505" transform="translate(42,0)"/>
<path d="M0 0 C6.27 0 12.54 0 19 0 C20.32 2.64 21.64 5.28 23 8 C26.41339416 11.03412814 29.30953019 11.32868873 33.83984375 11.30078125 C36.69917467 10.96957866 36.69917467 10.96957866 42 9 C42 14.94 42 20.88 42 27 C28.14 27 14.28 27 0 27 C0 18.09 0 9.18 0 0 Z " fill="#F0EEEA" transform="translate(4,15)"/>
<path d="M0 0 C2.70552388 2.19823815 4.44778333 3.89556667 6 7 C6.12775695 11.64487751 5.59584636 15.10623046 3 19 C-0.96259813 21.64173209 -4.25444796 22.4260971 -9 22 C-12.58024504 20.30752053 -14.39236856 19.04954522 -16.375 15.625 C-17.3812276 11.39884406 -17.59113319 8.33782774 -15.8125 4.3125 C-11.39724788 -1.3207527 -6.65680592 -2.01392498 0 0 Z " fill="#796C62" transform="translate(42,3)"/>
<path d="M0 0 C1.65 0 3.3 0 5 0 C5 1.32 5 2.64 5 4 C6.32 4 7.64 4 9 4 C9 5.32 9 6.64 9 8 C10.32 8 11.64 8 13 8 C13 10.97 13 13.94 13 17 C7.39 17 1.78 17 -4 17 C-4 15.02 -4 13.04 -4 11 C-2.68 11 -1.36 11 0 11 C0 7.37 0 3.74 0 0 Z " fill="#BFAE90" transform="translate(11,22)"/>
<path d="M0 0 C3.14581423 -0.02888514 6.29159469 -0.04675923 9.4375 -0.0625 C10.33533203 -0.07087891 11.23316406 -0.07925781 12.15820312 -0.08789062 C13.01220703 -0.09111328 13.86621094 -0.09433594 14.74609375 -0.09765625 C15.93223267 -0.10551147 15.93223267 -0.10551147 17.14233398 -0.11352539 C19 0 19 0 20 1 C23 1.16666667 23 1.16666667 26 1 C26.33 0.67 26.66 0.34 27 0 C28.41570123 -0.08651611 29.835595 -0.10704904 31.25390625 -0.09765625 C32.53491211 -0.09282227 32.53491211 -0.09282227 33.84179688 -0.08789062 C34.73962891 -0.07951172 35.63746094 -0.07113281 36.5625 -0.0625 C37.46419922 -0.05798828 38.36589844 -0.05347656 39.29492188 -0.04882812 C41.53001314 -0.03700225 43.76497437 -0.0205222 46 0 C46 1.32 46 2.64 46 4 C30.82 4 15.64 4 0 4 C0 2.68 0 1.36 0 0 Z " fill="#F5B61C" transform="translate(2,44)"/>
<path d="M0 0 C0.66 0.33 1.32 0.66 2 1 C2 5.29 2 9.58 2 14 C-1.69418201 14 -3.77836178 12.71820705 -7 11 C-7 12.32 -7 13.64 -7 15 C-7.66 15 -8.32 15 -9 15 C-13.09030544 9.85790173 -13.09030544 9.85790173 -12.75 6.625 C-12.5025 6.08875 -12.255 5.5525 -12 5 C-10.948125 4.731875 -9.89625 4.46375 -8.8125 4.1875 C-5.048764 3.1798452 -5.048764 3.1798452 -2.1875 1.3125 C-1.1046875 0.6628125 -1.1046875 0.6628125 0 0 Z " fill="#F4CD6D" transform="translate(41,6)"/>
<path d="M0 0 C1.32 0 2.64 0 4 0 C4 1.32 4 2.64 4 4 C5.32 4 6.64 4 8 4 C8 6.97 8 9.94 8 13 C5.36 13 2.72 13 0 13 C0 8.71 0 4.42 0 0 Z " fill="#FAC031" transform="translate(16,26)"/>
<path d="M0 0 C15.18 0 30.36 0 46 0 C46 0.33 46 0.66 46 1 C45.14450562 1.03758423 45.14450562 1.03758423 44.27172852 1.07592773 C41.70173843 1.19156549 39.13214473 1.31443624 36.5625 1.4375 C35.66466797 1.47681641 34.76683594 1.51613281 33.84179688 1.55664062 C32.98779297 1.59853516 32.13378906 1.64042969 31.25390625 1.68359375 C30.46314697 1.72025146 29.6723877 1.75690918 28.85766602 1.79467773 C26.98598559 1.80563257 26.98598559 1.80563257 26 3 C23 3.125 23 3.125 20 3 C19.67 2.67 19.34 2.34 19 2 C17.58672053 1.84379445 16.1664541 1.74943827 14.74609375 1.68359375 C13.89208984 1.64169922 13.03808594 1.59980469 12.15820312 1.55664062 C11.26037109 1.51732422 10.36253906 1.47800781 9.4375 1.4375 C8.53580078 1.39431641 7.63410156 1.35113281 6.70507812 1.30664062 C4.47021515 1.20021858 2.23523692 1.09820012 0 1 C0 0.67 0 0.34 0 0 Z " fill="#52411C" transform="translate(2,43)"/>
<path d="M0 0 C5.94 0 11.88 0 18 0 C18 0.99 18 1.98 18 3 C11.73 3 5.46 3 -1 3 C-0.67 2.01 -0.34 1.02 0 0 Z " fill="#FEBD1D" transform="translate(29,44)"/>
<path d="M0 0 C0.99 0 1.98 0 3 0 C3 5.28 3 10.56 3 16 C2.01 16 1.02 16 0 16 C0 10.72 0 5.44 0 0 Z " fill="#7C6F66" transform="translate(12,22)"/>
<path d="M0 0 C1.32 0 2.64 0 4 0 C4 2.97 4 5.94 4 9 C2.68 9 1.36 9 0 9 C0 6.03 0 3.06 0 0 Z " fill="#867A72" transform="translate(20,30)"/>
<path d="M0 0 C0.66 0.99 1.32 1.98 2 3 C3.31200404 4.35432675 4.64631404 5.68733482 6 7 C7 8 8 9 9 10 C8.01 10.495 8.01 10.495 7 11 C1.38596491 7.70480549 1.38596491 7.70480549 -0.4375 4.375 C-1 2 -1 2 0 0 Z " fill="#21201F" transform="translate(25,16)"/>
<path d="M0 0 C1.2065625 0.0309375 1.2065625 0.0309375 2.4375 0.0625 C2.4375 1.7125 2.4375 3.3625 2.4375 5.0625 C0.7875 5.0625 -0.8625 5.0625 -2.5625 5.0625 C-3.125 3.125 -3.125 3.125 -3.5625 1.0625 C-2.5625 0.0625 -2.5625 0.0625 0 0 Z " fill="#FAF9F9" transform="translate(31.5625,10.9375)"/>
<path d="M0 0 C2.97 0 5.94 0 9 0 C9 0.99 9 1.98 9 3 C6.03 3 3.06 3 0 3 C0 2.01 0 1.02 0 0 Z " fill="#AAA29C" transform="translate(28,34)"/>
<path d="M0 0 C1.65 0 3.3 0 5 0 C5.14285714 7.42857143 5.14285714 7.42857143 4 11 C3.34 11 2.68 11 2 11 C1.34 9.35 0.68 7.7 0 6 C1.32 6 2.64 6 4 6 C4 4.35 4 2.7 4 1 C2.68 0.67 1.36 0.34 0 0 Z " fill="#E6C16A" transform="translate(30,10)"/>
<path d="M0 0 C1.32 0 2.64 0 4 0 C4 1.98 4 3.96 4 6 C2.68 6 1.36 6 0 6 C0 4.02 0 2.04 0 0 Z " fill="#FFCA48" transform="translate(7,33)"/>
<path d="M0 0 C0 0.66 0 1.32 0 2 C-4.455 2.495 -4.455 2.495 -9 3 C-9.33 2.34 -9.66 1.68 -10 1 C-6.56484998 0.37542727 -3.50935186 0 0 0 Z " fill="#0E0E0D" transform="translate(43,24)"/>
</svg>
