<?xml version="1.0" encoding="UTF-8"?>
<svg version="1.1" xmlns="http://www.w3.org/2000/svg" width="68" height="68">
<path d="M0 0 C1.54675415 -0.01913956 1.54675415 -0.01913956 3.12475586 -0.03866577 C4.79356812 -0.04200424 4.79356812 -0.04200424 6.49609375 -0.04541016 C7.63892822 -0.05206696 8.7817627 -0.05872375 9.95922852 -0.06558228 C12.37677397 -0.07571246 14.79434741 -0.08039918 17.21191406 -0.08007812 C20.91908529 -0.08445552 24.62507043 -0.1207849 28.33203125 -0.15869141 C30.67838133 -0.16455848 33.02473709 -0.1685286 35.37109375 -0.17041016 C36.48363525 -0.18478119 37.59617676 -0.19915222 38.74243164 -0.21395874 C40.28918579 -0.20472885 40.28918579 -0.20472885 41.8671875 -0.1953125 C43.22928345 -0.19958755 43.22928345 -0.19958755 44.61889648 -0.20394897 C47.69005742 0.45212661 48.14809521 1.79029756 49.93359375 4.29052734 C52.40859375 5.28052734 52.40859375 5.28052734 54.93359375 6.29052734 C54.93359375 10.58052734 54.93359375 14.87052734 54.93359375 19.29052734 C53.28359375 19.62052734 51.63359375 19.95052734 49.93359375 20.29052734 C49.93359375 21.28052734 49.93359375 22.27052734 49.93359375 23.29052734 C50.57296875 23.41427734 51.21234375 23.53802734 51.87109375 23.66552734 C52.89203125 23.97490234 52.89203125 23.97490234 53.93359375 24.29052734 C55.49303714 27.40941412 55.2167565 29.83594184 54.93359375 33.29052734 C53.97453125 34.74458984 53.97453125 34.74458984 52.99609375 36.22802734 C49.27917611 41.90190869 50.09081769 49.74215023 49.93359375 56.29052734 C51.91359375 56.29052734 53.89359375 56.29052734 55.93359375 56.29052734 C56.12109375 59.16552734 56.12109375 59.16552734 55.93359375 62.29052734 C52.7383428 64.42069465 51.90479763 64.54498126 48.234375 64.56518555 C47.28328857 64.57471756 46.33220215 64.58424957 45.35229492 64.59407043 C44.32724854 64.59315903 43.30220215 64.59224762 42.24609375 64.59130859 C41.19204346 64.59559372 40.13799316 64.59987885 39.05200195 64.60429382 C36.82276122 64.61003854 34.59350173 64.61053635 32.36425781 64.60620117 C28.9469419 64.60303969 25.53049017 64.62650452 22.11328125 64.65185547 C19.94921985 64.65412822 17.78515611 64.65483207 15.62109375 64.65380859 C14.59604736 64.66301834 13.57100098 64.67222809 12.51489258 64.68171692 C11.08826294 64.67237373 11.08826294 64.67237373 9.6328125 64.6628418 C8.37730591 64.66378593 8.37730591 64.66378593 7.09643555 64.66474915 C4.4156179 64.20090551 3.52113495 63.47492787 1.93359375 61.29052734 C1.74609375 58.10302734 1.74609375 58.10302734 1.93359375 55.29052734 C0.65484375 55.33177734 -0.62390625 55.37302734 -1.94140625 55.41552734 C-4.12109375 55.48583984 -4.12109375 55.48583984 -6.06640625 55.29052734 C-8.51627557 52.84065803 -8.32271936 52.15344934 -8.33203125 48.79052734 C-8.33460937 47.90365234 -8.3371875 47.01677734 -8.33984375 46.10302734 C-8.32824219 44.71083984 -8.32824219 44.71083984 -8.31640625 43.29052734 C-8.32414063 42.36240234 -8.331875 41.43427734 -8.33984375 40.47802734 C-8.33726563 39.59115234 -8.3346875 38.70427734 -8.33203125 37.79052734 C-8.32977539 36.97583984 -8.32751953 36.16115234 -8.32519531 35.32177734 C-8.06640625 33.29052734 -8.06640625 33.29052734 -6.06640625 31.29052734 C-3.42640625 31.29052734 -0.78640625 31.29052734 1.93359375 31.29052734 C1.93359375 25.35052734 1.93359375 19.41052734 1.93359375 13.29052734 C-1.36640625 13.29052734 -4.66640625 13.29052734 -8.06640625 13.29052734 C-8.14726772 11.49959543 -8.20553327 9.70763107 -8.25390625 7.91552734 C-8.28871094 6.91779297 -8.32351563 5.92005859 -8.359375 4.89208984 C-8.21435547 3.60431641 -8.21435547 3.60431641 -8.06640625 2.29052734 C-4.79109232 0.10698473 -3.80108072 0.03191174 0 0 Z M3.93359375 3.29052734 C4.26359375 12.53052734 4.59359375 21.77052734 4.93359375 31.29052734 C9.22359375 31.62052734 13.51359375 31.95052734 17.93359375 32.29052734 C19.52296931 33.87990291 19.06340518 35.5295258 19.06640625 37.72802734 C19.06833984 39.06994141 19.06833984 39.06994141 19.0703125 40.43896484 C19.06644531 41.37998047 19.06257813 42.32099609 19.05859375 43.29052734 C19.06246094 44.23154297 19.06632812 45.17255859 19.0703125 46.14208984 C19.06902344 47.03669922 19.06773438 47.93130859 19.06640625 48.85302734 C19.06527832 49.67931641 19.06415039 50.50560547 19.06298828 51.35693359 C18.93359375 53.29052734 18.93359375 53.29052734 17.93359375 54.29052734 C15.75066601 54.52534427 13.56156201 54.70416057 11.37109375 54.85302734 C10.17355469 54.93681641 8.97601563 55.02060547 7.7421875 55.10693359 C6.81535156 55.16751953 5.88851563 55.22810547 4.93359375 55.29052734 C4.93359375 56.94052734 4.93359375 58.59052734 4.93359375 60.29052734 C7.33078807 60.97011337 7.33078807 60.97011337 9.93359375 61.29052734 C10.59359375 60.63052734 11.25359375 59.97052734 11.93359375 59.29052734 C11.93359375 58.30052734 11.93359375 57.31052734 11.93359375 56.29052734 C23.48359375 56.29052734 35.03359375 56.29052734 46.93359375 56.29052734 C46.93359375 53.32052734 46.93359375 50.35052734 46.93359375 47.29052734 C45.94359375 47.78552734 45.94359375 47.78552734 44.93359375 48.29052734 C44.93359375 48.95052734 44.93359375 49.61052734 44.93359375 50.29052734 C44.14984375 50.59990234 43.36609375 50.90927734 42.55859375 51.22802734 C40.01029247 52.21927773 40.01029247 52.21927773 37.93359375 53.29052734 C35.56236129 53.5208269 33.18617432 53.70172676 30.80859375 53.85302734 C29.52726562 53.93681641 28.2459375 54.02060547 26.92578125 54.10693359 C25.44464844 54.1978125 25.44464844 54.1978125 23.93359375 54.29052734 C23.93359375 53.30052734 23.93359375 52.31052734 23.93359375 51.29052734 C27.23359375 51.29052734 30.53359375 51.29052734 33.93359375 51.29052734 C33.93359375 49.97052734 33.93359375 48.65052734 33.93359375 47.29052734 C30.63359375 47.29052734 27.33359375 47.29052734 23.93359375 47.29052734 C23.93359375 46.30052734 23.93359375 45.31052734 23.93359375 44.29052734 C27.23359375 44.29052734 30.53359375 44.29052734 33.93359375 44.29052734 C34.59359375 42.97052734 35.25359375 41.65052734 35.93359375 40.29052734 C31.97359375 40.29052734 28.01359375 40.29052734 23.93359375 40.29052734 C23.93359375 39.30052734 23.93359375 38.31052734 23.93359375 37.29052734 C28.55359375 37.29052734 33.17359375 37.29052734 37.93359375 37.29052734 C38.59359375 35.97052734 39.25359375 34.65052734 39.93359375 33.29052734 C34.32359375 32.96052734 28.71359375 32.63052734 22.93359375 32.29052734 C22.60359375 31.63052734 22.27359375 30.97052734 21.93359375 30.29052734 C22.51326904 30.32194824 23.09294434 30.35336914 23.69018555 30.38574219 C26.33341967 30.51096887 28.97603008 30.5886466 31.62109375 30.66552734 C32.53310547 30.71580078 33.44511719 30.76607422 34.38476562 30.81787109 C39.31376005 31.00421208 39.31376005 31.00421208 43.69384766 29.06884766 C46.41593903 26.01741683 46.93359375 24.41129262 46.93359375 20.29052734 C43.63359375 20.29052734 40.33359375 20.29052734 36.93359375 20.29052734 C37.26359375 15.67052734 37.59359375 11.05052734 37.93359375 6.29052734 C40.57359375 5.96052734 43.21359375 5.63052734 45.93359375 5.29052734 C45.43859375 4.30052734 45.43859375 4.30052734 44.93359375 3.29052734 C31.40359375 3.29052734 17.87359375 3.29052734 3.93359375 3.29052734 Z M44.93359375 11.29052734 C45.26359375 12.61052734 45.59359375 13.93052734 45.93359375 15.29052734 C46.59359375 14.96052734 47.25359375 14.63052734 47.93359375 14.29052734 C47.60359375 13.30052734 47.27359375 12.31052734 46.93359375 11.29052734 C46.27359375 11.29052734 45.61359375 11.29052734 44.93359375 11.29052734 Z M43.93359375 32.29052734 C41.95359375 36.25052734 39.97359375 40.21052734 37.93359375 44.29052734 C40.40859375 45.28052734 40.40859375 45.28052734 42.93359375 46.29052734 C45.24359375 42.66052734 47.55359375 39.03052734 49.93359375 35.29052734 C46.50026042 32.09052734 46.50026042 32.09052734 43.93359375 32.29052734 Z M-5.06640625 34.29052734 C-5.06640625 37.92052734 -5.06640625 41.55052734 -5.06640625 45.29052734 C-4.40640625 44.63052734 -3.74640625 43.97052734 -3.06640625 43.29052734 C-0.44140625 42.66552734 -0.44140625 42.66552734 1.93359375 42.29052734 C2.59359375 43.61052734 3.25359375 44.93052734 3.93359375 46.29052734 C6.80779498 43.5744802 6.80779498 43.5744802 8.93359375 40.29052734 C12.72948241 40.83279715 14.40571368 42.49180298 16.93359375 45.29052734 C16.93359375 41.66052734 16.93359375 38.03052734 16.93359375 34.29052734 C9.67359375 34.29052734 2.41359375 34.29052734 -5.06640625 34.29052734 Z " fill="#FFC000" transform="translate(10.06640625,1.70947265625)"/>
<path d="M0 0 C7.59 0 15.18 0 23 0 C23 0.99 23 1.98 23 3 C15.41 3 7.82 3 0 3 C0 2.01 0 1.02 0 0 Z " fill="#FFBF00" transform="translate(19,10)"/>
<path d="M0 0 C7.26 0 14.52 0 22 0 C22 0.99 22 1.98 22 3 C14.41 3 6.82 3 -1 3 C-0.67 2.01 -0.34 1.02 0 0 Z " fill="#FFC100" transform="translate(20,24)"/>
<path d="M0 0 C7.26 0 14.52 0 22 0 C22 0.99 22 1.98 22 3 C14.41 3 6.82 3 -1 3 C-0.67 2.01 -0.34 1.02 0 0 Z " fill="#FFBF00" transform="translate(20,17)"/>
<path d="M0 0 C1.98 0.495 1.98 0.495 4 1 C4 2.32 4 3.64 4 5 C3.01 5.33 2.02 5.66 1 6 C0.34 5.67 -0.32 5.34 -1 5 C-0.67 3.35 -0.34 1.7 0 0 Z " fill="#FFC000" transform="translate(13,37)"/>
</svg>
